<svg xmlns="http://www.w3.org/2000/svg" class="hidden">
    <symbol id='logo' width="45" height="13" viewBox="0 0 45 13" xmlns="http://www.w3.org/2000/svg">
        <path d="M0.0480001 12V0.32H1.632V10.56H6.832V12H0.0480001ZM11.5778 12.16C10.6711 12.16 9.95108 11.9093 9.41775 11.408C8.89508 10.896 8.63375 10.2293 8.63375 9.408C8.63375 8.85333 8.75642 8.37333 9.00175 7.968C9.25775 7.56267 9.60975 7.248 10.0578 7.024C10.5164 6.78933 11.0391 6.672 11.6258 6.672H14.2018V6C14.2018 5.456 14.0524 5.05067 13.7538 4.784C13.4551 4.51733 13.0071 4.384 12.4098 4.384C11.8764 4.384 11.4444 4.48533 11.1138 4.688C10.7938 4.88 10.6231 5.152 10.6018 5.504H9.03375C9.08708 4.78933 9.41242 4.20267 10.0098 3.744C10.6071 3.27467 11.4071 3.04 12.4098 3.04C13.4978 3.04 14.3298 3.30133 14.9058 3.824C15.4924 4.336 15.7858 5.05067 15.7858 5.968V12H14.2178V10.384H13.9618L14.2178 10.064C14.2178 10.4907 14.1111 10.864 13.8978 11.184C13.6844 11.4933 13.3804 11.7333 12.9858 11.904C12.5911 12.0747 12.1218 12.16 11.5778 12.16ZM11.9938 10.832C12.6658 10.832 13.1991 10.672 13.5938 10.352C13.9991 10.0213 14.2018 9.57333 14.2018 9.008V7.84H11.7698C11.3111 7.84 10.9378 7.97867 10.6498 8.256C10.3724 8.52267 10.2338 8.88 10.2338 9.328C10.2338 9.78667 10.3884 10.1547 10.6978 10.432C11.0071 10.6987 11.4391 10.832 11.9938 10.832ZM22.5795 12.16C21.8328 12.16 21.2355 11.952 20.7875 11.536C20.3502 11.12 20.1315 10.5493 20.1315 9.824L20.4995 10.288H20.1635V12H18.5955V0.32H20.1795V2.848L20.1475 4.912H20.4995L20.1155 5.376C20.1155 4.66133 20.3395 4.096 20.7875 3.68C21.2462 3.25333 21.8435 3.04 22.5795 3.04C23.4542 3.04 24.1528 3.33867 24.6755 3.936C25.1982 4.52267 25.4595 5.328 25.4595 6.352V8.864C25.4595 9.87733 25.1982 10.6827 24.6755 11.28C24.1528 11.8667 23.4542 12.16 22.5795 12.16ZM22.0195 10.784C22.6062 10.784 23.0595 10.6293 23.3795 10.32C23.7102 10.0107 23.8755 9.52 23.8755 8.848V6.352C23.8755 5.66933 23.7102 5.17867 23.3795 4.88C23.0595 4.57067 22.6062 4.416 22.0195 4.416C21.4542 4.416 21.0062 4.59733 20.6755 4.96C20.3448 5.312 20.1795 5.80267 20.1795 6.432V8.768C20.1795 9.39733 20.3448 9.89333 20.6755 10.256C21.0062 10.608 21.4542 10.784 22.0195 10.784Z" fill="currentColor"/>
        <path d="M27.8533 12V0.32H30.1093L31.5493 5.36L33.0533 0.32H35.3093V12H33.7893V6.64C33.7893 6.07467 33.7999 5.45067 33.8213 4.768C33.8426 4.07467 33.8693 3.38667 33.9013 2.704C33.9439 2.01067 33.9866 1.38667 34.0293 0.832L32.2053 6.816H30.8613L29.1013 0.976C29.1759 1.488 29.2293 2.048 29.2613 2.656C29.3039 3.25333 29.3306 3.888 29.3413 4.56C29.3626 5.22133 29.3733 5.91467 29.3733 6.64V12H27.8533ZM41.239 12.16C40.4817 12.16 39.815 12.0267 39.239 11.76C38.6737 11.4827 38.2363 11.0933 37.927 10.592C37.6177 10.08 37.463 9.472 37.463 8.768H39.047C39.047 9.38667 39.2443 9.872 39.639 10.224C40.0443 10.576 40.5777 10.752 41.239 10.752C41.879 10.752 42.3857 10.5707 42.759 10.208C43.143 9.84533 43.335 9.37067 43.335 8.784C43.335 8.336 43.2123 7.94667 42.967 7.616C42.7323 7.27467 42.3857 7.04533 41.927 6.928L40.199 6.464C39.4417 6.25067 38.839 5.86667 38.391 5.312C37.9537 4.74667 37.735 4.08 37.735 3.312C37.735 2.68267 37.8737 2.13333 38.151 1.664C38.439 1.184 38.839 0.815999 39.351 0.559999C39.863 0.293333 40.455 0.16 41.127 0.16C41.8097 0.16 42.407 0.293333 42.919 0.559999C43.431 0.815999 43.831 1.17867 44.119 1.648C44.4177 2.11733 44.567 2.66133 44.567 3.28H42.999C42.999 2.768 42.823 2.352 42.471 2.032C42.119 1.712 41.671 1.552 41.127 1.552C40.5723 1.552 40.1243 1.712 39.783 2.032C39.4523 2.352 39.287 2.768 39.287 3.28C39.287 3.68533 39.399 4.032 39.623 4.32C39.847 4.608 40.1617 4.81067 40.567 4.928L42.343 5.408C43.143 5.62133 43.767 6.032 44.215 6.64C44.663 7.23733 44.887 7.952 44.887 8.784C44.887 9.46667 44.7377 10.064 44.439 10.576C44.1403 11.0773 43.7137 11.4667 43.159 11.744C42.615 12.0213 41.975 12.16 41.239 12.16Z" fill="#FF613F"/>
        </symbol>
</svg>